<svg width="4288" height="1000" viewBox="0 0 4288 1000" fill="none" xmlns="http://www.w3.org/2000/svg">
<path d="M3824.48 40.3326C3748.95 74.4165 3731.91 84.6416 3704.09 112.477L3671.15 144.288V119.294C3671.15 67.5997 3651.84 32.3797 3618.9 24.9948C3605.27 22.1545 3579.71 30.6755 3499.07 63.0552C3400.26 103.388 3394.58 106.796 3354.26 144.857C3305.99 189.734 3299.74 199.959 3290.65 248.812L3283.27 284.032H3262.83C3251.47 284.032 3233.86 289.145 3223.07 295.962L3203.76 307.323L3189 293.121C3171.96 276.648 3149.25 271.535 3040.78 258.469C2981.71 251.085 2962.41 246.54 2955.59 238.587C2944.23 224.954 2925.49 215.865 2908.45 215.865C2901.07 215.865 2864.16 229.498 2826.68 246.54C2773.86 269.831 2749.44 277.784 2717.07 280.624C2665.96 285.737 2628.48 299.37 2583.61 329.478C2565.44 341.407 2548.97 351.064 2547.84 349.36C2546.7 348.224 2558.63 307.891 2574.53 259.606C2590.43 210.752 2603.49 164.739 2603.49 156.786C2603.49 147.697 2596.11 133.495 2585.32 121.566C2566.58 101.684 2566.01 101.684 2501.27 96.571C2442.77 92.0265 2368.38 89.1862 2322.95 90.3223C2302.5 90.8904 2226.4 162.467 2211.64 195.414L2201.42 217.569L2186.08 167.011C2165.64 98.8433 2155.98 80.6652 2137.24 71.0081C2127.59 65.8955 2089.54 60.2149 2037.29 56.8065C1991.29 53.9661 1939.61 49.9897 1923.14 47.7174C1906.68 46.0132 1885.09 47.1494 1874.3 51.1258C1851.02 58.5107 1770.95 139.744 1765.27 161.33C1763.56 169.851 1763 203.367 1764.13 236.315L1766.97 295.394H1746.53C1692.01 295.962 1613.64 322.093 1562.53 357.313L1536.97 374.355L1451.79 362.425L1366.03 349.928L1326.28 370.946C1286.53 391.397 1285.96 391.397 1283.12 378.899C1281.98 372.082 1278.01 311.3 1274.6 244.268C1266.08 85.2097 1262.11 57.3745 1243.37 41.4687C1217.24 18.7461 1205.32 19.3142 1136.6 47.7174C1101.39 62.4871 1055.39 81.2333 1033.24 89.7542C1003.14 101.684 984.402 114.181 952.032 144.857C904.328 189.734 897.513 199.959 888.427 247.108L881.612 281.192L828.797 281.76C778.821 282.328 773.142 283.464 728.278 305.051C702.723 317.548 662.969 342.543 640.821 360.153C594.821 397.077 523.833 474.902 507.364 507.282C497.71 526.028 485.216 531.709 485.216 516.939C485.216 514.099 506.796 487.4 532.352 458.428C685.118 286.305 704.426 214.728 623.216 124.406C545.414 38.0603 402.302 35.22 161.512 114.749C90.524 138.04 90.524 138.04 47.3634 181.213C-11.1305 239.723 -11.6984 240.859 25.2152 341.975C66.1042 455.02 74.0548 467.517 108.129 476.606C122.894 480.583 127.438 490.24 190.475 670.885C227.388 774.84 260.895 866.867 264.87 873.684C273.388 890.158 297.808 903.223 319.389 903.223C341.537 903.223 422.179 848.121 482.376 792.45C502.821 773.704 505.66 772.568 510.772 781.089C534.623 821.99 567.562 852.665 608.451 873.116C650.476 893.566 654.451 894.702 708.969 894.702C754.402 894.702 773.71 891.862 800.402 881.637C840.155 866.867 886.155 837.328 923.069 802.676C948.624 778.817 949.76 778.249 953.167 790.746C954.871 798.131 956.575 823.126 957.143 846.417C957.711 918.561 963.958 948.668 981.563 964.006C996.328 976.503 1000.3 977.071 1095.71 977.071C1150.8 977.071 1201.34 974.231 1210.43 970.823C1218.95 967.982 1241.09 950.941 1258.7 933.33C1276.3 915.72 1293.91 903.223 1298.45 904.359C1302.43 906.063 1334.8 928.218 1370.58 953.781C1460.87 1017.97 1473.37 1016.84 1546.06 940.715L1586.95 897.542H1626.13C1702.23 897.542 1793.66 870.275 1853.86 829.375C1870.9 817.445 1904.97 787.338 1929.39 761.207C1953.81 735.644 1974.82 715.762 1975.39 716.898C1976.53 718.034 1991.86 760.639 2010.6 812.333C2031.61 870.275 2049.79 912.312 2059.44 923.105L2074.21 940.147L2171.89 941.851C2237.76 943.556 2274.68 941.851 2285.47 937.307C2294.55 933.899 2318.97 912.312 2341.12 890.158C2373.49 856.074 2382.58 843.008 2392.8 810.629C2400.18 789.61 2406.43 772.568 2408.13 772.568C2409.27 772.568 2414.95 782.225 2421.19 794.155C2436.53 824.262 2473.44 856.074 2516.03 875.956C2547.27 890.726 2562.6 893.566 2624.5 898.11C2701.74 903.223 2831.79 899.815 2864.73 891.294C2876.65 888.453 2894.82 875.956 2909.02 861.754L2934.01 836.759L2971.49 855.506C3022.04 881.069 3067.47 891.862 3123.12 891.862C3204.33 891.294 3259.42 870.275 3316.78 816.877C3336.08 798.699 3353.12 783.929 3354.26 783.929C3355.96 783.929 3358.23 816.877 3359.94 856.642C3365.05 975.935 3370.73 980.48 3504.18 975.367C3609.81 970.823 3617.2 967.982 3668.31 914.016C3695.57 885.045 3706.93 868.003 3711.47 849.257L3717.72 823.694L3737.02 840.168C3747.25 849.257 3774.51 866.299 3797.79 877.66C3831.86 894.702 3848.33 899.247 3884.68 901.519C3980.65 907.768 4051.64 879.932 4130.01 803.812C4187.37 749.278 4212.36 708.945 4221.44 656.115C4232.23 594.764 4207.81 491.944 4174.31 458.428C4158.98 443.659 4154.43 441.954 4130.01 444.227L4102.75 447.067V373.787C4102.75 265.854 4091.39 247.108 4022.11 239.723L3986.33 235.747L3988.6 144.288C3990.31 68.1678 3989.17 50.5578 3981.22 35.22C3971 15.9058 3946.01 -1.47989e-05 3925.57 -1.47989e-05C3918.18 -1.47989e-05 3872.75 18.1781 3824.48 40.3326ZM3922.16 184.621L3920.46 300.506L3976.11 302.21L4031.77 303.915L4033.47 367.538L4035.17 431.161L4010.75 434.002C3997.12 436.274 3971 437.978 3952.26 439.114L3918.18 440.25L3913.64 471.494C3906.26 521.484 3911.94 595.332 3925 612.942C3953.96 651.002 4013.02 637.937 4022.68 590.787C4026.09 573.745 4033.47 566.929 4077.2 538.525C4105.59 520.915 4130.01 506.146 4131.72 506.146C4133.99 505.578 4140.23 516.371 4145.35 529.436C4157.84 561.248 4162.95 632.256 4154.43 663.5C4145.35 695.879 4114.68 728.827 4075.49 748.141C4045.96 762.343 4037.44 764.047 3980.65 764.047C3925 764.047 3914.78 762.343 3890.36 749.846C3843.79 725.987 3809.15 690.767 3798.93 657.251C3791.54 632.256 3779.62 510.122 3779.05 452.18V436.274L3727.94 438.546C3700.11 439.682 3676.83 440.818 3676.83 440.25C3676.83 439.682 3671.72 411.279 3665.47 377.195C3659.22 343.111 3654.11 309.027 3654.11 301.642V288.009L3714.31 291.985C3753.49 294.826 3776.21 294.258 3778.48 290.281C3780.75 287.441 3780.18 251.085 3777.34 209.616C3775.07 168.715 3773.94 133.495 3775.64 132.359C3779.62 128.383 3911.94 68.7358 3918.18 68.7358C3921.59 68.1678 3923.3 109.068 3922.16 184.621ZM1202.48 120.43C1204.18 136.904 1210.43 226.658 1216.11 319.252C1223.49 443.659 1228.03 488.536 1233.14 488.536C1236.55 488.536 1270.62 471.494 1308.67 451.043L1376.82 413.551L1443.83 423.208C1480.18 428.889 1511.98 435.138 1514.82 437.41C1517.09 439.114 1486.43 465.813 1446.67 495.921C1361.49 559.544 1326.28 590.219 1334.23 594.196C1337.64 595.332 1379.66 626.576 1427.93 663.5L1515.96 729.963L1520.5 794.723C1522.77 830.511 1523.34 860.618 1522.21 861.754C1521.07 863.459 1465.98 825.398 1400.11 777.681C1272.33 684.518 1253.59 672.021 1250.18 675.997C1249.04 677.701 1249.61 714.626 1251.88 758.367C1254.16 802.108 1255.29 839.032 1254.16 840.168C1253.02 841.304 1216.67 843.576 1172.38 844.712C1096.28 847.553 1092.87 846.985 1092.87 836.759C1092.87 830.511 1088.9 754.39 1083.78 666.908C1079.24 579.994 1071.86 447.635 1067.88 373.787C1063.91 299.37 1059.37 236.883 1057.66 235.179C1055.39 233.475 1045.17 234.611 1034.38 237.451C1023.02 240.859 1013.37 241.996 1011.66 240.859C1008.25 236.883 1023.59 169.283 1029.83 163.035C1034.95 157.922 1187.14 92.0265 1195.66 90.8904C1197.37 90.8904 1200.77 104.524 1202.48 120.43ZM3603 96.571C3603 99.9794 3606.97 154.514 3610.95 217.569C3615.49 280.624 3622.31 377.195 3625.72 431.729C3628.55 486.263 3635.37 597.036 3640.48 677.701C3645.59 757.798 3648.43 827.67 3646.73 831.647C3644.46 836.759 3629.69 839.6 3593.34 840.168C3566.09 840.736 3532.58 842.44 3520.09 844.144L3496.23 847.553L3492.83 788.474C3487.15 691.335 3478.63 528.3 3471.81 380.603C3468.41 303.915 3463.3 239.155 3461.02 236.883C3458.75 234.043 3447.39 234.611 3436.04 237.451C3419.57 241.996 3415.59 241.996 3415.59 235.747C3415.59 220.977 3428.09 167.579 3432.63 162.467C3437.17 157.922 3590.51 92.0265 3599.02 91.4584C3601.3 90.8904 3603 93.7307 3603 96.571ZM2075.34 123.838L2106.58 127.815L2116.23 156.218C2121.34 171.556 2150.31 262.446 2180.4 357.881C2211.07 453.316 2236.63 532.277 2237.76 533.413C2244.01 540.23 2245.14 536.253 2311.02 261.31C2322.95 213.024 2334.87 168.715 2337.71 162.467C2342.82 152.809 2349.07 152.241 2435.39 156.218C2485.37 158.49 2529.1 161.898 2531.37 164.739C2534.21 167.011 2497.86 286.305 2451.29 429.457C2404.16 573.177 2357.59 715.762 2347.94 747.005C2337.71 778.249 2328.06 805.516 2325.79 808.356C2323.52 810.629 2287.17 810.629 2245.14 808.924L2168.48 804.948L2154.28 764.615C2146.9 742.461 2099.76 608.397 2049.79 466.949L1959.49 210.184L1936.21 203.935C1923.71 201.095 1910.08 197.118 1906.68 195.982C1901.56 194.278 1899.29 180.077 1899.29 152.809V111.909L1971.98 115.885C2011.74 118.157 2058.31 122.134 2075.34 123.838ZM539.735 140.312C566.994 155.082 597.093 187.461 602.204 207.912C614.13 255.629 580.624 312.436 478.401 417.528L411.957 486.263L443.191 593.628C460.228 652.706 473.858 703.264 473.858 704.968C473.858 707.241 453.981 723.147 430.129 740.188L385.833 770.864L311.438 557.272C269.981 439.682 233.635 336.294 230.228 327.205L223.413 310.731L206.944 326.637C191.043 341.975 178.549 341.975 178.549 326.637C178.549 322.093 168.327 290.849 155.833 257.333C143.339 223.818 134.82 194.846 137.092 192.574C143.339 186.893 266.574 149.969 313.71 139.176C374.475 126.11 376.747 126.11 448.302 127.247C505.66 127.815 519.858 130.087 539.735 140.312ZM2906.75 421.504C2909.02 497.625 2911.86 604.421 2913.57 659.523L2916.41 759.503L2869.27 762.911C2793.74 769.16 2767.05 768.024 2760.23 758.367C2755.12 751.55 2750.01 750.982 2734.11 755.526C2684.7 769.728 2618.26 758.935 2579.07 730.531C2536.48 699.288 2509.22 623.167 2514.33 549.319C2518.31 490.808 2536.48 453.884 2580.78 412.983C2625.64 370.946 2667.1 352.2 2725.02 346.52C2763.07 343.111 2782.38 336.862 2833.49 313.572C2868.13 297.666 2897.66 284.6 2899.37 284.032C2901.64 284.032 2905.05 345.951 2906.75 421.504ZM3043.62 323.797C3072.01 326.637 3104.38 331.182 3116.31 332.886L3137.89 336.294L3134.48 416.391C3129.94 507.282 3136.18 556.704 3155.49 595.9C3178.78 641.913 3198.08 641.913 3220.8 595.9C3240.68 556.704 3256.58 484.559 3261.12 414.119C3264.53 361.289 3266.8 349.36 3273.62 350.496C3278.16 351.064 3309.39 352.768 3342.9 355.04L3403.67 359.017L3410.48 399.35C3424.68 478.879 3413.89 573.177 3384.36 633.392C3366.18 670.885 3324.16 718.034 3293.49 736.212C3217.96 780.521 3081.1 757.798 3015.79 690.199C2962.97 636.233 2945.94 540.23 2961.84 385.716C2964.68 353.904 2968.65 325.501 2970.36 322.661C2974.33 316.98 2981.15 316.98 3043.62 323.797ZM931.019 366.402C972.476 387.42 992.921 415.255 1005.98 468.085C1013.93 501.601 1014.5 514.099 1008.82 552.727C1000.3 612.942 984.97 643.049 940.106 687.927C888.994 739.052 849.241 757.798 787.908 760.639C748.155 762.343 737.365 760.639 711.241 748.141C673.76 731.099 654.451 711.785 635.142 673.157C613.562 628.28 606.179 577.154 614.698 527.732C623.216 480.015 631.735 461.269 662.969 427.753C717.488 368.674 769.735 345.951 846.402 347.656C890.698 349.36 902.624 351.632 931.019 366.402ZM1839.66 374.355C1872.6 385.716 1904.97 406.166 1904.97 415.255C1904.97 418.096 1896.45 430.025 1885.66 441.386C1830.01 503.874 1723.24 634.528 1723.24 640.209C1723.24 661.227 1787.98 628.28 1820.35 591.355L1846.48 561.816L1887.37 610.102C1932.8 664.636 1932.8 665.772 1896.45 698.152C1851.59 737.348 1774.92 761.775 1692.01 762.343C1605.12 762.911 1560.82 743.029 1533 693.039C1517.09 664.068 1515.96 657.819 1515.96 602.149C1516.53 548.751 1518.23 537.957 1534.7 495.921C1548.33 462.973 1559.69 444.227 1575.02 430.025C1646.58 365.266 1751.64 343.679 1839.66 374.355ZM1910.65 531.141C1910.65 535.685 1909.51 539.662 1908.38 539.662C1907.24 539.662 1904.97 535.685 1902.7 531.141C1901 526.596 1902.13 522.62 1904.97 522.62C1908.38 522.62 1910.65 526.596 1910.65 531.141Z" fill="white"/>
<path d="M392.081 269.262C354.6 283.463 351.76 288.576 363.118 327.204C368.797 345.951 375.044 366.969 377.316 374.922C379.587 382.875 383.563 389.123 386.402 388.555C389.242 388.555 408.55 368.673 430.131 344.246C465.909 302.778 480.106 276.647 471.588 268.694C464.205 261.309 413.094 261.877 392.081 269.262Z" fill="white"/>
<path d="M2719.91 415.825C2680.73 436.843 2654.6 479.448 2659.71 514.1C2663.69 544.775 2707.42 576.019 2741.49 572.61C2759.67 570.906 2759.67 570.906 2761.37 535.686C2763.07 503.307 2761.94 499.898 2748.31 490.809C2731.27 480.016 2729 452.181 2742.63 426.05C2750.58 410.144 2750.58 409.008 2741.49 409.008C2735.81 409.008 2726.16 412.416 2719.91 415.825Z" fill="white"/>
<path d="M828.796 411.279C764.055 439.683 736.795 506.714 775.413 544.775C795.857 565.793 828.796 576.586 856.623 571.474C893.536 564.657 928.178 509.554 928.178 457.861C928.178 436.274 919.66 430.025 913.981 447.635C910.006 461.837 869.117 494.217 856.055 494.217C828.796 494.217 822.549 454.452 845.833 427.185C853.783 417.528 860.03 408.439 860.03 406.735C860.03 401.054 847.536 403.326 828.796 411.279Z" fill="white"/>
<path d="M1667.02 476.039C1640.9 490.24 1626.7 518.075 1626.7 555C1626.7 587.947 1630.67 602.149 1640.33 601.581C1649.42 601.581 1746.53 477.175 1743.12 470.926C1737.44 461.837 1686.9 465.245 1667.02 476.039Z" fill="white"/>
</svg>
